HIERARCHY
ROOT root
{
	OFFSET	0	13.1	24.9
	CHANNELS 6  Xposition Yposition Zposition Xrotation Yrotation Zrotation
	JOINT spine_1
	{
		OFFSET	0	9.99999	0
		CHANNELS 3  Xrotation Yrotation Zrotation
		JOINT spine_2
		{
			OFFSET	0	112	-10
			CHANNELS 3  Xrotation Yrotation Zrotation
			JOINT spine_3
			{
				OFFSET	0	206.5	19.3
				CHANNELS 3  Xrotation Yrotation Zrotation
				JOINT spine_4
				{
					OFFSET	0	110.4	14.6
					CHANNELS 3  Xrotation Yrotation Zrotation
					JOINT neck_1
					{
						OFFSET	0	71.8	-50.3
						CHANNELS 3  Xrotation Yrotation Zrotation
						JOINT neck_2
						{
							OFFSET	0	86.2	-25.8
							CHANNELS 3  Xrotation Yrotation Zrotation
							JOINT head_ee
							{
								OFFSET	0	179.8	-8.7
								CHANNELS 3  Xrotation Yrotation Zrotation
								End Site
								{
									OFFSET	1	0	0
								}
							}
						}
					}
					JOINT left_clavicle
					{
						OFFSET	-43.2	22.4	-70.8
						CHANNELS 3  Xrotation Yrotation Zrotation
						JOINT left_shoulder
						{
							OFFSET	-93.9	-5.79999	48.7
							CHANNELS 3  Xrotation Yrotation Zrotation
							JOINT left_elbow
							{
								OFFSET	-291.4	-30.8	15.2
								CHANNELS 3  Xrotation Yrotation Zrotation
								JOINT left_lowarm_twist
								{
									OFFSET	-110.7	-3.89999	13.6
									CHANNELS 3  Xrotation Yrotation Zrotation
									JOINT left_hand
									{
										OFFSET	-110.7	-3.89999	13.6
										CHANNELS 3  Xrotation Yrotation Zrotation
										JOINT left_ee
										{
											OFFSET	-80.8	-5.10001	12.1
											CHANNELS 3  Xrotation Yrotation Zrotation
											End Site
											{
												OFFSET	1	0	0
											}
										}
									}
								}
							}
						}
					}
					JOINT right_clavicle
					{
						OFFSET	43.2	22.4	-70.8
						CHANNELS 3  Xrotation Yrotation Zrotation
						JOINT right_shoulder
						{
							OFFSET	93.9	-5.79999	48.7
							CHANNELS 3  Xrotation Yrotation Zrotation
							JOINT right_elbow
							{
								OFFSET	291.4	-30.8	15.2
								CHANNELS 3  Xrotation Yrotation Zrotation
								JOINT right_lowarm_twist
								{
									OFFSET	110.7	-3.89999	13.6
									CHANNELS 3  Xrotation Yrotation Zrotation
									JOINT right_hand
									{
										OFFSET	110.7	-3.89999	13.6
										CHANNELS 3  Xrotation Yrotation Zrotation
										JOINT right_ee
										{
											OFFSET	80.8	-5.10001	12.1
											CHANNELS 3  Xrotation Yrotation Zrotation
											End Site
											{
												OFFSET	1	0	0
											}
										}
									}
								}
							}
						}
					}
				}
			}
		}
	}
	JOINT left_hip
	{
		OFFSET	-82.8	-127.5	0.300001
		CHANNELS 3  Xrotation Yrotation Zrotation
		JOINT left_knee
		{
			OFFSET	-28.2	-396.7	2.2
			CHANNELS 3  Xrotation Yrotation Zrotation
			JOINT left_ankle
			{
				OFFSET	-11.7	-411.3	35.4
				CHANNELS 3  Xrotation Yrotation Zrotation
				JOINT left_toes
				{
					OFFSET	0	-60	-88.6
					CHANNELS 3  Xrotation Yrotation Zrotation
					JOINT left_foot_ee
					{
						OFFSET	-22.5	-16.5	-42.2
						CHANNELS 3  Xrotation Yrotation Zrotation
						End Site
						{
							OFFSET	1	0	0
						}
					}
				}
			}
		}
	}
	JOINT right_hip
	{
		OFFSET	82.8	-127.5	0.300001
		CHANNELS 3  Xrotation Yrotation Zrotation
		JOINT right_knee
		{
			OFFSET	28.2	-396.7	2.2
			CHANNELS 3  Xrotation Yrotation Zrotation
			JOINT right_ankle
			{
				OFFSET	11.7	-411.3	35.4
				CHANNELS 3  Xrotation Yrotation Zrotation
				JOINT right_toes
				{
					OFFSET	0	-60	-88.6
					CHANNELS 3  Xrotation Yrotation Zrotation
					JOINT right_foot_ee
					{
						OFFSET	22.5	-16.5	-42.2
						CHANNELS 3  Xrotation Yrotation Zrotation
						End Site
						{
							OFFSET	1	0	0
						}
					}
				}
			}
		}
	}
}
MOTION
Frames: 13
Frame Time: 0.02
791.99991756 629.528 -1669.36374575 7.13741378928 68.4071568129 2.7901250853 0.040149 -0.569654 -3.03677 0.0452008 -0.375356 -3.06683 0.0680773 0.274025 -3.07752 0.0549262 -0.215214 -3.08219 -16.7703 5.17089 1.96751 -16.8407 8.81828 3.71707 -0.0 0.0 -0.0 10.3554 16.071 18.6908 10.4928 -7.13196 66.8621 2.01199 -44.8997 0.831403 84.8583 -4.40956 -8.85958 -10.5914 31.6435 -51.0352 -0.0 0.0 -0.0 5.93185 -3.05257 -11.5209 -12.4994 -5.8434 -59.9752 0.361927 10.1647 -0.0321888 35.2312 0.124734 4.42873 4.40316 2.29656 -29.9678 0.0 0.0 0.0 4.77737 17.4028 -11.2544 7.83143 -0.400728 -1.13347 4.9342 -5.27342 -0.732853 10.6859 -0.0 -0.0 -0.0 0.0 -0.0 15.0997 7.7655 -8.18854 -46.1559 0.904094 -6.83759 -1.7547 -27.0771 -0.272021 0.398973 -0.0 -0.0 0.0 0.0 0.0 
793.035854919 631.484 -1669.75992151 3.95732419065 67.1401760988 5.71303049675 0.134992 -0.33472 -2.97424 0.139902 -0.14487 -2.98949 0.149695 0.479328 -2.9544 0.137515 0.00693779 -2.99299 -15.9901 5.27462 1.3847 -16.0686 9.31182 3.14368 -0.0 0.0 -0.0 10.5021 17.054 18.7846 12.1707 -6.77372 65.9556 2.15562 -46.8728 0.934534 85.218 -4.45264 -8.87613 -10.3262 31.4609 -48.881 -0.0 0.0 -0.0 6.50638 -3.98731 -12.616 -12.1615 -5.03823 -59.2736 0.396785 11.1203 -0.0386265 34.2492 0.0844076 4.30984 4.32149 0.117881 -30.2663 0.0 0.0 0.0 6.80628 19.1539 -12.064 7.03741 -0.353065 -1.02111 4.02576 -5.20646 -0.59943 9.86683 -0.0 -0.0 -0.0 0.0 -0.0 17.1997 4.37465 -9.59752 -36.5702 0.263107 -5.51215 -1.65334 -26.9453 -0.256059 -3.49787 0.0 0.0 0.0 0.0 0.0 
792.955501109 631.484 -1671.44926075 3.89463783162 66.7514368329 5.78115746322 0.134992 -0.33472 -2.97424 0.139902 -0.14487 -2.98949 0.149695 0.479328 -2.9544 0.137515 0.00693779 -2.99299 -15.9901 5.27462 1.3847 -16.0686 9.31182 3.14368 -0.0 0.0 -0.0 10.5021 17.054 18.7846 12.1707 -6.77372 65.9556 2.15562 -46.8728 0.934534 85.218 -4.45264 -8.87613 -10.3262 31.4609 -48.881 -0.0 0.0 -0.0 6.50638 -3.98731 -12.616 -12.1615 -5.03823 -59.2736 0.396785 11.1203 -0.0386265 34.2492 0.0844076 4.30984 4.32149 0.117881 -30.2663 0.0 0.0 0.0 6.80628 19.1539 -12.064 7.03741 -0.353065 -1.02111 4.02576 -5.20646 -0.59943 9.86683 -0.0 -0.0 -0.0 0.0 -0.0 17.1997 4.37465 -9.59752 -36.5702 0.263107 -5.51215 -1.65334 -26.9453 -0.256059 -3.49787 0.0 0.0 0.0 0.0 0.0 
790.445239357 632.125 -1668.58484407 -0.229396891161 66.5410673687 9.88802730028 0.103529 -0.551052 -3.0356 0.108584 -0.356865 -3.06447 0.130339 0.2883 -3.07168 0.117229 -0.200195 -3.07867 -15.1119 5.1093 2.4274 -15.1551 8.33845 3.99454 -0.0 0.0 -0.0 10.6279 17.5187 18.9202 14.2189 -7.13617 64.9556 2.14017 -46.6672 0.923277 84.598 -4.37845 -8.84743 -9.35599 30.5288 -42.1967 -0.0 0.0 -0.0 7.01754 -5.37138 -13.5636 -11.9722 -4.73323 -57.3493 0.508908 14.1495 -0.0631606 35.1566 0.121597 4.41971 4.52468 -0.972021 -32.3167 0.0 0.0 0.0 8.35897 19.41 -12.1592 7.35711 -0.372068 -1.06643 4.86034 -2.04671 -0.71357 8.94283 -0.0 -0.0 -0.0 0.0 -0.0 18.7842 3.2433 -10.3824 -28.7889 -0.0885449 -4.3709 1.92019 -26.5504 0.294424 -6.35622 0.0 0.0 0.0 0.0 0.0 
777.912448392 632.986 -1666.7021491 0.0037244685882 67.2946301242 9.69538939655 -0.172781 -0.589203 -3.05242 -0.167684 -0.39387 -3.08369 -0.143341 0.270862 -3.09691 -0.156655 -0.221394 -3.10083 -14.2743 4.80248 2.22554 -14.3076 7.82012 3.64199 -0.0 0.0 -0.0 10.7916 17.6823 19.1698 15.4423 -7.40166 64.9833 2.14936 -46.7898 0.929974 84.2394 -4.33569 -8.83046 -9.3938 30.6712 -42.2857 -0.0 0.0 -0.0 6.95742 -6.00595 -13.4355 -11.9997 -4.27127 -57.6231 0.554126 15.3497 -0.0746735 34.6546 0.10081 4.35901 4.24186 -2.03599 -30.5251 0.0 0.0 0.0 9.06082 21.6968 -12.6358 6.45312 -0.318991 -0.938032 2.78511 0.151098 -0.408843 7.95657 -0.0 -0.0 -0.0 0.0 -0.0 19.8483 2.07926 -10.7989 -22.0843 -0.265056 -3.3577 1.70409 -26.9638 0.262049 -9.53907 0.0 0.0 0.0 0.0 0.0 
777.751102025 632.986 -1669.69210599 0.00362638677296 66.6446653063 9.69549597101 -0.172781 -0.589203 -3.05242 -0.167684 -0.39387 -3.08369 -0.143341 0.270862 -3.09691 -0.156655 -0.221394 -3.10083 -14.2743 4.80248 2.22554 -14.3076 7.82012 3.64199 -0.0 0.0 -0.0 10.7916 17.6823 19.1698 15.4423 -7.40166 64.9833 2.14936 -46.7898 0.929974 84.2394 -4.33569 -8.83046 -9.3938 30.6712 -42.2857 -0.0 0.0 -0.0 6.95742 -6.00595 -13.4355 -11.9997 -4.27127 -57.6231 0.554126 15.3497 -0.0746735 34.6546 0.10081 4.35901 4.24186 -2.03599 -30.5251 0.0 0.0 0.0 9.06082 21.6968 -12.6358 6.45312 -0.318991 -0.938032 2.78511 0.151098 -0.408843 7.95657 -0.0 -0.0 -0.0 0.0 -0.0 19.8483 2.07926 -10.7989 -22.0843 -0.265056 -3.3577 1.70409 -26.9638 0.262049 -9.53907 0.0 0.0 0.0 0.0 0.0 
766.718292914 628.473 -1662.2274861 -2.6356424992 67.7930094893 12.0200133533 -0.344804 -0.507108 -3.13079 -0.339404 -0.306961 -3.15668 -0.319076 0.38112 -3.1486 -0.332889 -0.120666 -3.16926 -13.029 5.71596 3.99261 -13.0291 8.37326 5.51193 -0.0 0.0 -0.0 9.92834 18.7212 17.5519 15.8865 -10.6599 65.5244 2.48996 -50.9592 1.18671 85.3157 -4.46436 -8.88058 -7.99074 30.0364 -32.9739 -0.0 0.0 -0.0 7.65749 -7.46359 -14.6907 -10.7162 -4.56615 -55.9412 0.6227 17.1434 -0.0938608 38.8588 0.291242 4.86155 4.23201 -2.48588 -30.6263 0.0 0.0 0.0 9.3694 22.5285 -12.7898 5.95193 -0.290442 -0.866498 10.439 2.06185 -1.48915 6.43881 -0.0 -0.0 -0.0 0.0 -0.0 19.8978 0.929353 -11.143 -10.8534 -0.292515 -1.63748 2.7806 -22.3762 0.416588 -11.1726 0.0 0.0 0.0 0.0 0.0 
766.716921835 628.473 -1662.24614577 -2.63520415212 67.7891214016 12.01953988 -0.344804 -0.507108 -3.13079 -0.339404 -0.306961 -3.15668 -0.319076 0.38112 -3.1486 -0.332889 -0.120666 -3.16926 -13.029 5.71596 3.99261 -13.0291 8.37326 5.51193 -0.0 0.0 -0.0 9.92834 18.7212 17.5519 15.8865 -10.6599 65.5244 2.48996 -50.9592 1.18671 85.3157 -4.46436 -8.88058 -7.99074 30.0364 -32.9739 -0.0 0.0 -0.0 7.65749 -7.46359 -14.6907 -10.7162 -4.56615 -55.9412 0.6227 17.1434 -0.0938608 38.8588 0.291242 4.86155 4.23201 -2.48588 -30.6263 0.0 0.0 0.0 9.3694 22.5285 -12.7898 5.95193 -0.290442 -0.866498 10.439 2.06185 -1.48915 6.43881 -0.0 -0.0 -0.0 0.0 -0.0 19.8978 0.929353 -11.143 -10.8534 -0.292515 -1.63748 2.7806 -22.3762 0.416588 -11.1726 0.0 0.0 0.0 0.0 0.0 
722.677263117 628.378 -1663.41521129 -6.03060530572 74.1115126625 14.2681109712 -0.183817 -0.527721 -3.09287 -0.178556 -0.329942 -3.12015 -0.157447 0.341951 -3.11885 -0.170987 -0.154655 -3.13371 -9.97174 7.61581 7.25017 -9.85751 9.43211 8.93876 -0.0 0.0 -0.0 6.6932 18.5567 12.3891 16.3296 -10.192 73.4515 2.7465 -53.6742 1.38979 84.9158 -4.41644 -8.86224 -5.77594 29.1443 -20.1131 -0.0 0.0 -0.0 9.51116 -9.91523 -17.9563 -9.64634 -9.13113 -52.9614 0.443258 12.3845 -0.0480927 47.0734 0.767354 5.79748 4.56044 -2.58049 -33.255 0.0 0.0 0.0 9.00714 23.3937 -13.3728 0.490303 -0.0205001 -0.0724474 16.9991 1.15498 -2.36589 6.14486 -0.0 -0.0 -0.0 0.0 -0.0 18.5248 1.15462 -11.8136 -6.62049 -0.215425 -0.99265 4.66509 -19.6471 0.68807 -10.5053 0.0 0.0 0.0 0.0 0.0 
722.561246533 628.378 -1665.47260233 -5.89725012902 73.7437317395 14.1293319958 -0.183817 -0.527721 -3.09287 -0.178556 -0.329942 -3.12015 -0.157447 0.341951 -3.11885 -0.170987 -0.154655 -3.13371 -9.97174 7.61581 7.25017 -9.85751 9.43211 8.93876 -0.0 0.0 -0.0 6.6932 18.5567 12.3891 16.3296 -10.192 73.4515 2.7465 -53.6742 1.38979 84.9158 -4.41644 -8.86224 -5.77594 29.1443 -20.1131 -0.0 0.0 -0.0 9.51116 -9.91523 -17.9563 -9.64634 -9.13113 -52.9614 0.443258 12.3845 -0.0480927 47.0734 0.767354 5.79748 4.56044 -2.58049 -33.255 0.0 0.0 0.0 9.00714 23.3937 -13.3728 0.490303 -0.0205001 -0.0724474 16.9991 1.15498 -2.36589 6.14486 -0.0 -0.0 -0.0 0.0 -0.0 18.5248 1.15462 -11.8136 -6.62049 -0.215425 -0.99265 4.66509 -19.6471 0.68807 -10.5053 0.0 0.0 0.0 0.0 0.0 
722.594085074 628.378 -1664.86569546 -5.93594287798 73.852218359 14.1696250118 -0.183817 -0.527721 -3.09287 -0.178556 -0.329942 -3.12015 -0.157447 0.341951 -3.11885 -0.170987 -0.154655 -3.13371 -9.97174 7.61581 7.25017 -9.85751 9.43211 8.93876 -0.0 0.0 -0.0 6.6932 18.5567 12.3891 16.3296 -10.192 73.4515 2.7465 -53.6742 1.38979 84.9158 -4.41644 -8.86224 -5.77594 29.1443 -20.1131 -0.0 0.0 -0.0 9.51116 -9.91523 -17.9563 -9.64634 -9.13113 -52.9614 0.443258 12.3845 -0.0480927 47.0734 0.767354 5.79748 4.56044 -2.58049 -33.255 0.0 0.0 0.0 9.00714 23.3937 -13.3728 0.490303 -0.0205001 -0.0724474 16.9991 1.15498 -2.36589 6.14486 -0.0 -0.0 -0.0 0.0 -0.0 18.5248 1.15462 -11.8136 -6.62049 -0.215425 -0.99265 4.66509 -19.6471 0.68807 -10.5053 0.0 0.0 0.0 0.0 0.0 
722.432934133 628.378 -1668.08905821 -5.73631077299 73.2760680465 13.9614904648 -0.183817 -0.527721 -3.09287 -0.178556 -0.329942 -3.12015 -0.157447 0.341951 -3.11885 -0.170987 -0.154655 -3.13371 -9.97174 7.61581 7.25017 -9.85751 9.43211 8.93876 -0.0 0.0 -0.0 6.6932 18.5567 12.3891 16.3296 -10.192 73.4515 2.7465 -53.6742 1.38979 84.9158 -4.41644 -8.86224 -5.77594 29.1443 -20.1131 -0.0 0.0 -0.0 9.51116 -9.91523 -17.9563 -9.64634 -9.13113 -52.9614 0.443258 12.3845 -0.0480927 47.0734 0.767354 5.79748 4.56044 -2.58049 -33.255 0.0 0.0 0.0 9.00714 23.3937 -13.3728 0.490303 -0.0205001 -0.0724474 16.9991 1.15498 -2.36589 6.14486 -0.0 -0.0 -0.0 0.0 -0.0 18.5248 1.15462 -11.8136 -6.62049 -0.215425 -0.99265 4.66509 -19.6471 0.68807 -10.5053 0.0 0.0 0.0 0.0 0.0 
722.257798248 628.378 -1672.74425398 -5.47160885257 72.4440965774 13.6844935586 -0.183817 -0.527721 -3.09287 -0.178556 -0.329942 -3.12015 -0.157447 0.341951 -3.11885 -0.170987 -0.154655 -3.13371 -9.97174 7.61581 7.25017 -9.85751 9.43211 8.93876 -0.0 0.0 -0.0 6.6932 18.5567 12.3891 16.3296 -10.192 73.4515 2.7465 -53.6742 1.38979 84.9158 -4.41644 -8.86224 -5.77594 29.1443 -20.1131 -0.0 0.0 -0.0 9.51116 -9.91523 -17.9563 -9.64634 -9.13113 -52.9614 0.443258 12.3845 -0.0480927 47.0734 0.767354 5.79748 4.56044 -2.58049 -33.255 0.0 0.0 0.0 9.00714 23.3937 -13.3728 0.490303 -0.0205001 -0.0724474 16.9991 1.15498 -2.36589 6.14486 -0.0 -0.0 -0.0 0.0 -0.0 18.5248 1.15462 -11.8136 -6.62049 -0.215425 -0.99265 4.66509 -19.6471 0.68807 -10.5053 0.0 0.0 0.0 0.0 0.0 
